<?xml version="1.0" standalone="no"?>
<!DOCTYPE svg PUBLIC "-//W3C//DTD SVG 20010904//EN"
 "http://www.w3.org/TR/2001/REC-SVG-20010904/DTD/svg10.dtd">
<svg version="1.0" xmlns="http://www.w3.org/2000/svg"
 width="512.000000pt" height="512.000000pt" viewBox="0 0 512.000000 512.000000"
 preserveAspectRatio="xMidYMid meet">

<g transform="translate(0.000000,512.000000) scale(0.100000,-0.100000)"
fill="#000000" stroke="none">
<path d="M1600 4801 c-40 -14 -1430 -570 -1490 -597 -36 -16 -63 -37 -80 -61
l-25 -37 -3 -1838 c-2 -1813 -2 -1839 18 -1877 25 -50 94 -86 148 -77 20 3
363 136 762 296 l725 290 896 -295 c493 -162 908 -295 922 -295 23 0 1364 529
1537 606 36 16 63 37 80 61 l25 37 3 1838 c2 1813 2 1839 -18 1877 -25 50 -94
86 -148 77 -20 -3 -363 -136 -762 -296 l-725 -290 -884 291 c-487 160 -901
293 -921 295 -19 2 -46 0 -60 -5z m961 -599 l754 -248 3 -826 2 -825 -57 9
c-32 5 -93 20 -136 33 -43 14 -91 25 -108 25 -128 0 -193 -147 -109 -244 43
-49 199 -102 335 -115 l70 -6 3 -667 c1 -368 1 -668 -1 -668 -2 0 -343 112
-758 248 l-754 248 -3 923 -2 923 92 -6 c81 -6 98 -4 128 12 49 27 72 63 77
119 9 103 -54 157 -202 170 l-90 8 -3 568 c-1 312 -1 567 1 567 2 0 343 -112
758 -248z m-1061 -1401 l0 -1639 -600 -240 -600 -240 0 1638 0 1638 597 240
c329 132 599 241 601 241 1 1 2 -737 2 -1638z m3320 0 l0 -1639 -600 -240
-600 -240 0 1638 0 1638 598 240 c328 132 598 241 600 241 1 1 2 -737 2 -1638z"/>
<path d="M2380 2992 c-81 -44 -105 -143 -53 -218 65 -95 82 -123 118 -192 41
-78 75 -110 129 -119 77 -12 158 47 171 128 7 39 2 53 -49 153 -58 115 -128
213 -171 242 -39 26 -104 28 -145 6z"/>
<path d="M1092 3035 c-41 -18 -89 -70 -154 -163 -97 -143 -119 -223 -78 -290
27 -45 76 -72 129 -72 61 0 106 31 138 94 32 63 76 129 118 177 62 70 69 149
18 210 -47 55 -109 71 -171 44z"/>
<path d="M723 2230 c-18 -10 -39 -30 -48 -43 -22 -34 -75 -195 -75 -229 0 -74
75 -148 150 -148 49 0 107 35 129 78 35 69 72 204 65 236 -22 105 -134 159
-221 106z"/>
<path d="M4298 3289 c-42 -21 -61 -54 -102 -167 -32 -91 -33 -138 -3 -182 42
-62 114 -84 180 -56 50 21 73 53 111 154 41 108 44 138 16 192 -37 73 -127 99
-202 59z"/>
<path d="M4020 2624 c-19 -8 -62 -45 -96 -82 -34 -37 -87 -85 -118 -107 -57
-41 -96 -99 -96 -143 0 -64 62 -136 126 -148 50 -9 106 15 194 85 93 74 177
173 191 225 8 31 7 48 -6 81 -18 50 -37 68 -88 90 -45 19 -62 18 -107 -1z"/>
</g>
</svg>
