<?xml version="1.0" standalone="no"?>
<!DOCTYPE svg PUBLIC "-//W3C//DTD SVG 20010904//EN"
 "http://www.w3.org/TR/2001/REC-SVG-20010904/DTD/svg10.dtd">
<svg version="1.0" xmlns="http://www.w3.org/2000/svg"
 width="512.000000pt" height="512.000000pt" viewBox="0 0 512.000000 512.000000"
 preserveAspectRatio="xMidYMid meet">

<g transform="translate(0.000000,512.000000) scale(0.100000,-0.100000)"
fill="#000000" stroke="none">
<path d="M1536 4494 c-152 -37 -284 -171 -321 -325 -22 -97 -22 -3121 0 -3218
37 -156 170 -289 326 -326 96 -22 1942 -22 2038 0 156 37 289 170 326 326 22
97 22 3121 0 3218 -37 156 -170 289 -326 326 -93 22 -1952 21 -2043 -1z m2000
-300 c62 -30 79 -65 82 -181 l4 -103 -1062 0 -1062 0 4 103 c3 88 6 106 27
136 45 63 -5 60 1029 61 851 0 947 -2 978 -16z m84 -1634 l0 -1050 -1060 0
-1060 0 0 1050 0 1050 1060 0 1060 0 0 -1050z m-2 -1452 c-2 -87 -6 -108 -25
-134 -48 -68 9 -64 -1033 -64 -1042 0 -985 -4 -1033 64 -19 26 -23 47 -25 134
l-4 102 1062 0 1062 0 -4 -102z"/>
<path d="M253 3594 c-46 -23 -67 -62 -123 -232 -91 -276 -124 -490 -124 -797
-1 -314 33 -530 124 -807 57 -173 77 -209 127 -233 58 -28 126 -16 171 29 35
34 37 40 37 99 -1 46 -11 89 -39 166 -93 260 -120 427 -121 741 0 211 3 262
23 370 25 142 70 308 114 423 41 106 37 163 -15 215 -30 30 -44 36 -89 39 -36
2 -63 -2 -85 -13z"/>
<path d="M4735 3600 c-11 -4 -33 -22 -50 -40 -44 -46 -42 -120 9 -259 93 -260
120 -427 121 -741 0 -211 -3 -262 -23 -370 -25 -141 -71 -309 -113 -420 -44
-113 -37 -171 26 -230 22 -21 36 -25 88 -25 106 0 131 33 206 270 84 262 116
476 115 780 0 229 -8 315 -50 523 -27 137 -112 405 -144 457 -34 55 -123 81
-185 55z"/>
<path d="M825 3376 c-49 -22 -74 -58 -111 -161 -76 -212 -109 -411 -109 -655
0 -244 33 -443 109 -655 38 -105 62 -140 113 -161 44 -19 69 -18 118 6 46 22
85 80 85 125 0 16 -18 83 -39 149 -63 192 -82 299 -88 486 -7 223 18 382 97
614 16 50 30 103 30 119 0 47 -39 105 -85 127 -48 23 -78 25 -120 6z"/>
<path d="M4174 3370 c-45 -23 -84 -81 -84 -125 0 -16 18 -83 39 -149 63 -192
82 -299 88 -486 7 -223 -18 -382 -97 -614 -36 -107 -37 -136 -8 -187 46 -82
152 -100 223 -38 40 35 82 144 125 319 43 174 55 278 55 470 0 244 -33 443
-109 655 -38 105 -62 140 -113 161 -44 19 -71 18 -119 -6z"/>
</g>
</svg>
